<svg xmlns="http://www.w3.org/2000/svg" width="88" height="31">
  <path fill="#fba" d="M0 0h83v31H0z"/>
  <path fill="white" d="M0 0h36.444v31H0z"/>
  <path fill="#504D4C" d="M83 31V0h-1v30H0v1z"/>
  <path fill="#ccc" d="M0 0h83v1H1v30H0z"/>
  <path fill="#9E9C9C" d="M2 29h79V1h1v29H2z"/>
  <path fill="none" stroke="#900" stroke-width="4.811" d="M72 29l13-13m-13 0 13 13"/>
  <path fill="black" d="M33.077 7.037l0.334 2.034l-1.185 2.266c0 0-0.455-0.961-1.21-1.493c-0.636-0.448-1.051-0.546-1.699-0.412c-0.833 0.172-1.777 1.167-2.189 2.395c-0.493 1.469-0.498 2.179-0.515 2.832c-0.028 1.047 0.137 1.665 0.137 1.665s-0.719-1.33-0.712-3.279c0.005-1.391 0.223-2.652 0.867-3.896c0.566-1.094 1.407-1.751 2.154-1.828c0.772-0.08 1.383 0.292 1.854 0.695c0.495 0.423 0.996 1.347 0.996 1.347L33.077 7.037zM33.222 18.547c0 0-0.523 0.936-0.85 1.296s-0.91 0.996-1.63 1.313c-0.721 0.317-1.099 0.378-1.811 0.309c-0.712-0.069-1.373-0.48-1.605-0.652c-0.231-0.171-0.824-0.678-1.159-1.15s-0.858-1.416-0.858-1.416s0.292 0.946 0.474 1.348c0.105 0.231 0.428 0.938 0.886 1.553c0.427 0.574 1.257 1.562 2.519 1.785s2.128-0.343 2.343-0.481c0.214-0.137 0.667-0.516 0.953-0.822c0.299-0.32 0.582-0.727 0.738-0.972c0.114-0.179 0.301-0.541 0.301-0.541L33.222 18.547z"/>
  <polygon points="39.991 5.822 41.871 5.822 41.871 8.6 44.644 8.6 44.644 5.822 46.524 5.822 46.524 13.112 44.644 13.112 44.644 10.021 41.871 10.021 41.871 13.112 39.991 13.112"/>
  <polygon points="48.09 5.822 54.81 5.822 54.81 7.243 52.393 7.243 52.393 13.112 50.513 13.112 50.513 7.243 48.09 7.243"/>
  <polygon points="56.381 5.822 58.773 5.822 60.434 9.723 62.104 5.822 64.491 5.822 64.491 13.112 62.714 13.112 62.714 7.78 61.034 11.711 59.843 11.711 58.163 7.78 58.163 13.112 56.381 13.112"/>
  <polygon points="66.932 5.822 68.812 5.822 68.812 11.691 72.113 11.691 72.113 13.112 66.932 13.112"/>
  <path d="M45.555 21c0 .371-.07.716-.209 1.034-.139.318-.341.59-.606.817a2.908 2.908 0 01-1.015.54 4.475 4.475 0 01-1.307.175c-.572-.003-1.056-.049-1.45-.137a5.417 5.417 0 01-.967-.295v-1.578h.201c.291.173.605.317.94.432.336.115.67.173 1.003.173.201 0 .42-.023.654-.07.236-.046.422-.13.56-.252.108-.099.19-.2.246-.302.056-.102.084-.26.084-.475a.792.792 0 00-.113-.429.898.898 0 00-.29-.29 1.604 1.604 0 00-.623-.209 4.474 4.474 0 00-1.49.024c-.263.05-.494.099-.692.147h-.211v-4.029h5.079v1.367h-3.348v1.165a11.864 11.864 0 01.777-.024c.393 0 .744.038 1.053.113.308.075.574.18.798.314.291.176.518.409.681.698.163.29.245.653.245 1.091z"/>
  <path fill="#005A9C" fill-rule="nonzero" d="m11.437 7.127 2.852 9.698 2.852-9.698h2.065L14.485 23.06h-.197l-2.95-9.875-2.951 9.875h-.196L3.47 7.127h2.065l2.853 9.698 1.928-6.531-.944-3.167zM25.072 17.946c0 1.443-.384 2.656-1.151 3.639-.767.983-1.761 1.475-2.98 1.475-.918 0-1.718-.292-2.4-.875-.682-.583-1.187-1.373-1.515-2.37l1.613-.668c.236.603.548 1.079.935 1.426s.843.521 1.367.521c.551 0 1.016-.308 1.397-.924.38-.616.571-1.357.571-2.223 0-.957-.203-1.698-.61-2.223-.473-.616-1.214-.925-2.223-.925h-.787v-.944l2.754-4.761h-3.325l-.925 1.574h-.59V7.127h7.672v.964l-2.911 5.016c1.023.328 1.797.925 2.321 1.791.524.865.787 1.881.787 3.048Z"/>
</svg>
