<svg xmlns="http://www.w3.org/2000/svg" width="700" height="280" version="1.0" viewBox="0 0 582.92 235.27">
  <linearGradient id="c" x1="172.942" x2="26.67" y1="77.476" y2="76.313" gradientUnits="userSpaceOnUse">
    <stop offset="0" stop-color="#366a96"/>
    <stop offset="1" stop-color="#3679b0"/>
  </linearGradient>
  <linearGradient id="d" x1="224.24" x2="-65.309" y1="144.757" y2="144.757" gradientUnits="userSpaceOnUse">
    <stop offset="0" stop-color="#ffc836"/>
    <stop offset="1" stop-color="#ffe873"/>
  </linearGradient>
  <path fill="#fff" d="M-2.628 0h588.175v235.27H-2.628z" opacity=".8"/>
  <path fill="#646464" d="M289.252 74.345c0-14.563-4.152-22.039-12.457-22.448a23.4 23.4 0 0 0-9.67 1.589c-2.504.897-4.19 1.784-5.077 2.68v34.758c5.312 3.334 10.03 4.884 14.143 4.64 8.704-.575 13.06-7.642 13.06-21.22zm10.244.604c0 7.398-1.735 13.539-5.224 18.422-3.89 5.527-9.28 8.373-16.17 8.529-5.196.165-10.547-1.462-16.054-4.874v31.59l-8.91-3.177v-70.12c1.463-1.794 3.344-3.334 5.625-4.64 5.302-3.09 11.745-4.679 19.328-4.757l.127.127c6.93-.088 12.272 2.758 16.024 8.529 3.5 5.292 5.254 12.076 5.254 20.37zm54.447 20.732c0 9.923-.994 16.794-2.982 20.615-1.998 3.821-5.8 6.872-11.414 9.143-4.552 1.793-9.474 2.768-14.757 2.934l-1.472-5.615c5.37-.73 9.152-1.462 11.346-2.193 4.317-1.462 7.28-3.704 8.908-6.706 1.306-2.446 1.95-7.115 1.95-14.026v-2.32c-6.092 2.769-12.476 4.143-19.153 4.143-4.386 0-8.256-1.374-11.59-4.143-3.742-3.011-5.614-6.832-5.614-11.462V48.973l8.909-3.05v37.32c0 3.987 1.287 7.058 3.86 9.212s5.907 3.187 9.99 3.109c4.085-.088 8.461-1.667 13.11-4.757v-43.54h8.91v48.414zm34.777 5.731a35.662 35.662 0 0 1-2.933.127c-5.04 0-8.967-1.199-11.774-3.606-2.798-2.408-4.201-5.732-4.201-9.972v-35.09h-6.102v-5.604h6.102V32.383l8.899-3.167v18.051h10.01v5.605h-10.01v34.846c0 3.343.896 5.711 2.69 7.096 1.54 1.14 3.986 1.793 7.32 1.959v4.64zm53.941-.731h-8.909V66.294c0-3.5-.818-6.512-2.446-9.026-1.881-2.846-4.493-4.27-7.846-4.27-4.084 0-9.192 2.155-15.323 6.463v41.22h-8.909V18.484l8.91-2.807v37.438c5.691-4.142 11.91-6.218 18.665-6.218 4.717 0 8.538 1.589 11.462 4.756 2.934 3.168 4.396 7.116 4.396 11.833v37.195zm47.352-27.74c0-5.595-1.063-10.215-3.178-13.87-2.515-4.454-6.423-6.804-11.706-7.047-9.767.565-14.64 7.564-14.64 20.976 0 6.15 1.013 11.287 3.06 15.41 2.613 5.253 6.53 7.846 11.755 7.758 9.806-.078 14.709-7.817 14.709-23.227zm9.757.059c0 7.963-2.038 14.59-6.102 19.884-4.474 5.926-10.654 8.899-18.54 8.899-7.816 0-13.908-2.973-18.304-8.9-3.987-5.292-5.975-11.92-5.975-19.883 0-7.486 2.154-13.783 6.462-18.91 4.552-5.439 10.537-8.168 17.935-8.168 7.398 0 13.422 2.73 18.061 8.168 4.308 5.127 6.462 11.424 6.462 18.91zm51.074 27.681h-8.909V64.344c0-3.986-1.198-7.096-3.596-9.338-2.398-2.232-5.595-3.314-9.582-3.226-4.23.078-8.255 1.462-12.076 4.143v44.758h-8.91v-45.86c5.128-3.733 9.845-6.17 14.154-7.31 4.064-1.063 7.651-1.589 10.74-1.589 2.116 0 4.104.205 5.976.614 3.5.81 6.345 2.31 8.538 4.513 2.447 2.437 3.665 5.361 3.665 8.782v40.85z"/>
  <path fill="url(#c)" d="M77.67 47.068c0-13.623 3.653-21.034 23.823-24.563 13.693-2.4 31.251-2.7 47.627 0 12.934 2.135 23.822 11.77 23.822 24.563v44.945c0 13.182-10.57 23.981-23.822 23.981h-47.627c-16.164 0-29.787 13.782-29.787 29.363v21.564H55.33c-13.852 0-21.916-9.988-25.304-23.963-4.57-18.776-4.377-29.964 0-47.945 3.794-15.688 15.917-23.964 29.769-23.964h65.52v-6H77.67V47.07z"/>
  <path fill="url(#d)" d="M172.942 190.902c0 13.623-11.823 20.523-23.822 23.964-18.052 5.188-32.54 4.394-47.627 0-12.6-3.67-23.823-11.17-23.823-23.964v-44.945c0-12.934 10.782-23.98 23.823-23.98h47.627c15.864 0 29.786-13.712 29.786-29.964V71.049h17.858c13.87 0 20.4 10.306 23.823 23.964 4.764 18.97 4.976 33.157 0 47.945-4.818 14.363-9.97 23.963-23.823 23.963h-71.449v6h47.627v17.981z"/>
  <path fill="#fff" d="M89.582 44.086c0-4.976 3.988-9 8.928-9 4.924 0 8.93 4.024 8.93 9 0 4.959-4.006 8.982-8.93 8.982-4.94 0-8.928-4.023-8.928-8.982zm53.591 149.798c0-4.958 4.006-8.982 8.929-8.982 4.94 0 8.929 4.024 8.929 8.982 0 4.977-3.988 9-8.93 9-4.922 0-8.928-4.023-8.928-9z"/>
  <path fill="#2e597d" d="M293.107 179.804c0 5.816-1.374 10.642-4.123 14.477-3.068 4.347-7.318 6.584-12.752 6.712-4.09.128-8.31-1.15-12.656-3.835v24.832l-6.903-2.493.096-55.13c1.15-1.406 2.62-2.62 4.41-3.643 4.155-2.43 9.205-3.675 15.15-3.74l.095.096c5.433-.063 9.62 2.174 12.56 6.712 2.749 4.155 4.123 9.492 4.123 16.012m-8.054-.48c0-11.441-3.292-17.322-9.875-17.641a18.621 18.621 0 0 0-7.67 1.246c-1.982.703-3.324 1.406-4.027 2.11v27.325c4.218 2.62 7.957 3.835 11.217 3.643 6.904-.447 10.355-6.008 10.355-16.683m52.321-1.054c0 6.264-1.598 11.473-4.794 15.628-3.515 4.666-8.373 6.999-14.573 6.999-6.136 0-10.93-2.333-14.382-7-3.132-4.154-4.698-9.363-4.698-15.627 0-5.881 1.694-10.835 5.082-14.862 3.58-4.282 8.277-6.423 14.094-6.423 5.816 0 10.546 2.14 14.19 6.423 3.387 4.027 5.081 8.981 5.081 14.862m-7.67 0c0-4.41-.83-8.054-2.493-10.93-1.981-3.516-5.05-5.37-9.204-5.562-7.67.448-11.505 5.945-11.505 16.492h.095c0 4.857.8 8.916 2.397 12.176 2.046 4.155 5.114 6.2 9.205 6.136 7.67-.064 11.505-6.168 11.505-18.312m68.451-19.751-11.41 40.269-5.752 2.013-11.026-33.462-9.013 31.449-5.752 2.013-13.52-41.515 6.425-2.301 10.738 32.694 8.533-30.393 6.424-2.301 10.834 32.694 9.205-32.694 4.314 1.534m37.79 37.68c-2.685 1.726-5.082 2.908-7.191 3.547a26.892 26.892 0 0 1-7.766 1.15c-4.666 0-8.374-1.182-11.122-3.547-4.986-4.218-7.447-10.099-7.383-17.641.064-6.2 1.343-11.314 3.835-15.34 3.005-4.73 7.351-7.096 13.04-7.096 10.61 0 16.012 7 16.203 20.998h-25.695c-.384 5.433.64 9.843 3.068 13.23 2.429 3.325 5.625 4.923 9.588 4.795 3.324-.128 7.255-1.279 11.793-3.452l1.63 3.356m-7.383-21.956c0-3.388-.703-6.264-2.11-8.63-1.661-2.684-3.93-4.026-6.806-4.026-5.753 0-8.95 4.186-9.588 12.56l18.504.096m41.312-17.067a663.473 663.473 0 0 0-2.78 5.657c-1.79-.383-3.1-.575-3.932-.575h-.096c-3.835 0-7.254 1.278-10.259 3.835v33.94h-6.999v-34.899c2.621-2.94 5.945-5.113 9.972-6.52 3.515-1.278 6.647-1.917 9.396-1.917 1.534 0 3.1.16 4.698.48m38.167 39.022c-2.685 1.726-5.082 2.908-7.191 3.547a26.892 26.892 0 0 1-7.766 1.15c-4.666 0-8.374-1.182-11.122-3.547-4.986-4.218-7.447-10.099-7.383-17.641.064-6.2 1.343-11.314 3.835-15.34 3.005-4.73 7.351-7.096 13.04-7.096 10.61 0 16.012 7 16.203 20.998h-25.695c-.384 5.433.64 9.843 3.068 13.23 2.429 3.325 5.625 4.923 9.588 4.795 3.324-.128 7.255-1.279 11.793-3.452l1.63 3.356m-7.383-21.956c0-3.388-.703-6.264-2.11-8.63-1.661-2.684-3.93-4.026-6.806-4.026-5.753 0-8.95 4.186-9.588 12.56l18.504.096m51.091 19.175c-6.264 4.858-12.975 7.319-20.134 7.383-5.305 0-9.492-2.397-12.56-7.19-2.685-4.156-4.027-9.045-4.027-14.67s1.438-10.579 4.315-14.861c3.26-4.794 7.606-7.16 13.039-7.095 4.155 0 8.341 1.022 12.56 3.068v-24.641l6.712-2.301.095 60.307m-6.807-.767v-27.23c-4.09-2.556-7.702-3.834-10.834-3.834-3.963 0-6.967 2.077-9.013 6.232-1.662 3.324-2.493 7.19-2.493 11.601 0 4.219.8 7.894 2.397 11.026 1.982 4.09 4.89 6.136 8.725 6.136 3.58 0 7.319-1.31 11.218-3.93" transform="skewX(-1.06)"/>
</svg>
