<svg xmlns="http://www.w3.org/2000/svg" viewBox="0 0 1022 360">
  <rect fill="#e9500e" width="234" height="360" />
  <circle cx="119" cy="242" r="70" fill="none" stroke="white" stroke-width="20" />
	<g fill="white" stroke="#e9500e" stroke-width="11">
    <circle cx="51" cy="237.8" r="30" />
    <circle cx="153.45" cy="184" r="30" />
    <circle cx="147.55" cy="301" r="30" />
	</g>
  <path fill="white" d="M349.2 331.7q-16.3 0-27.7-5a47.7 47.7 0 0 1-18.5-13.6 54.9 54.9 0 0 1-10.3-20.4 95.1 95.1 0 0 1-3.2-25.1V164.7h16v100.8a75.4 75.4 0 0 0 3.3 23.2 44.8 44.8 0 0 0 8.8 16.1 34.5 34.5 0 0 0 13.7 9.5 54 54 0 0 0 35.9 0 34.5 34.5 0 0 0 13.6-9.5 44.8 44.8 0 0 0 8.9-16.1 75.4 75.4 0 0 0 3.2-23.2V164.7h16v102.9a95.2 95.2 0 0 1-3.2 25 54.9 54.9 0 0 1-10.2 20.5 47.8 47.8 0 0 1-18.6 13.7q-11.4 5-27.7 5Zm112.3-118.1q4-3.1 12.9-6.5a57.8 57.8 0 0 1 20.9-3.4 55.6 55.6 0 0 1 23.4 4.7 48.8 48.8 0 0 1 17.4 13.2 58.3 58.3 0 0 1 10.7 20.1 85.3 85.3 0 0 1 3.6 25.6 76.4 76.4 0 0 1-4.3 26.7 57.4 57.4 0 0 1-12.3 20 52.8 52.8 0 0 1-18.9 12.7 65.5 65.5 0 0 1-24.4 4.3q-16.2 0-26.9-2.1a137.6 137.6 0 0 1-17.4-4.5V148l15.3-2.8Zm0 100.2A67.6 67.6 0 0 0 472 316a126 126 0 0 0 18.3 1.1q19.8 0 31.8-12.8 12-12.9 12-37a84.3 84.3 0 0 0-2-19.2 45.1 45.1 0 0 0-6.9-15.8 34.3 34.3 0 0 0-12.4-10.7q-7.6-4-19-4a49.4 49.4 0 0 0-10.3 1 60.4 60.4 0 0 0-9.2 2.7 50.9 50.9 0 0 0-7.5 3.6 52.5 52.5 0 0 0-5.3 3.5ZM674 324q-6.8 1.8-18.3 4.2a144.4 144.4 0 0 1-28.3 2.4q-13.7 0-23-4a37.1 37.1 0 0 1-14.8-11.4 45.8 45.8 0 0 1-8.1-17.7 98.6 98.6 0 0 1-2.5-22.8v-68.5h15.3v63.5a108.3 108.3 0 0 0 2 22q1.8 8.9 6 14.4a24 24 0 0 0 11 8 47.6 47.6 0 0 0 16.4 2.5 131.1 131.1 0 0 0 18.9-1.1q8-1.2 10.1-2.2v-107h15.4Zm36.3-113.5q6.8-1.9 18.4-4.3A144.4 144.4 0 0 1 757 204q14 0 23.2 4a35.7 35.7 0 0 1 14.9 11.4 46.7 46.7 0 0 1 7.9 17.8 103.5 103.5 0 0 1 2.3 23v68H790V265a115.5 115.5 0 0 0-1.8-22 36.6 36.6 0 0 0-5.9-14.6 23 23 0 0 0-10.8-8.1q-6.7-2.5-16.9-2.5A129.1 129.1 0 0 0 736 219q-8 1.2-10.3 2.1v107h-15.3Zm144.7-4.3h48.5v13H855v64.9a65.9 65.9 0 0 0 1.8 16.8 23.5 23.5 0 0 0 5 10 16 16 0 0 0 8.1 4.8 42.7 42.7 0 0 0 10.4 1.2q9.7 0 15.6-2.3a67.6 67.6 0 0 0 9.1-4.1l3.8 12.7q-3.3 2.2-11.5 4.9a57.2 57.2 0 0 1-18 2.7q-11.3 0-19-3a27.4 27.4 0 0 1-12.2-9 36.7 36.7 0 0 1-6.5-14.9 104 104 0 0 1-1.9-21.2V170.4l15.3-2.8ZM1022.4 324q-6.8 1.8-18.4 4.2a144.4 144.4 0 0 1-28.3 2.4q-13.7 0-22.9-4a37.1 37.1 0 0 1-14.8-11.4 45.8 45.8 0 0 1-8.2-17.7 98.6 98.6 0 0 1-2.4-22.8v-68.5h15.3v63.5a108.3 108.3 0 0 0 1.9 22q1.9 8.9 6.1 14.4a24 24 0 0 0 11 8 47.6 47.6 0 0 0 16.4 2.5 131.1 131.1 0 0 0 18.8-1.1q8-1.2 10.2-2.2v-107h15.3Z" />
</svg>
